<svg t="1626342550593" class="icon" viewBox="0 0 1024 1024" version="1.1" xmlns="http://www.w3.org/2000/svg" p-id="1986" width="16" height="16"><path d="M392 112a8 8 0 0 1 8 8v56a8 8 0 0 1-8 8H184v656h208a8 8 0 0 1 8 8v56a8 8 0 0 1-8 8H144c-17.673 0-32-14.327-32-32V144c0-17.673 14.327-32 32-32h248z m488 0c17.496 0 31.713 14.042 31.996 31.47l0.004 0.53v736c0 17.496-14.042 31.713-31.47 31.996L880 912H632a8 8 0 0 1-7.996-7.75L624 904v-56a8 8 0 0 1 7.75-7.996L632 840h208V184H632a8 8 0 0 1-7.996-7.75L624 176v-56a8 8 0 0 1 7.75-7.996L632 112h248zM514.343 301.657a8 8 0 0 1 11.314 0l187.716 187.716c12.496 12.496 12.496 32.758 0 45.254L525.657 722.343A8 8 0 0 1 512 716.686v-75.882a16 16 0 0 1 4.686-11.314l81.49-81.49H296a8 8 0 0 1-8-8v-56a8 8 0 0 1 8-8h302.176l-81.49-81.49a16 16 0 0 1-4.68-10.904l-0.006-0.41v-75.882a8 8 0 0 1 2.343-5.657z" p-id="1987"></path></svg>