<svg t="1626343449134" class="icon" viewBox="0 0 1024 1024" version="1.1" xmlns="http://www.w3.org/2000/svg" p-id="15076" width="16" height="16"><path d="M384 298.666667a42.666667 42.666667 0 0 1 4.992 85.034666L384 384H298.666667a128 128 0 0 0-7.509334 255.786667L298.666667 640h85.333333a42.666667 42.666667 0 0 1 4.992 85.034667L384 725.333333H298.666667a213.333333 213.333333 0 0 1-9.258667-426.453333L298.666667 298.666667h85.333333z m341.333333 0a213.333333 213.333333 0 0 1 9.258667 426.453333L725.333333 725.333333h-85.333333a42.666667 42.666667 0 0 1-4.992-85.034666L640 640h85.333333a128 128 0 0 0 7.509334-255.786667L725.333333 384h-85.333333a42.666667 42.666667 0 0 1-4.992-85.034667L640 298.666667h85.333333zM298.666667 469.333333h426.666666a42.666667 42.666667 0 0 1 4.992 85.034667L725.333333 554.666667H298.666667a42.666667 42.666667 0 0 1-4.992-85.034667L298.666667 469.333333h426.666666H298.666667z" p-id="15077"></path></svg>