<svg t="1626342858649" class="icon" viewBox="0 0 1024 1024" version="1.1" xmlns="http://www.w3.org/2000/svg" p-id="1179" width="16" height="16"><path d="M512 512l0 128 32 0 32-64 64 0 0 256-48 0 0 64 224 0 0-64-48 0 0-256 64 0 32 64 32 0 0-128zM832 320l0-160c0-17.6-14.4-32-32-32l-224 0 0-64c0-35.2-28.8-64-64-64l-128 0c-35.2 0-64 28.8-64 64l0 64-224 0c-17.6 0-32 14.4-32 32l0 640c0 17.6 14.4 32 32 32l288 0 0 192 640 0 0-704-192 0zM384 64.128c0.032-0.032 0.064-0.064 0.128-0.128l127.776 0c0.032 0.032 0.096 0.064 0.128 0.128l0 63.872-128 0 0-63.872zM192 256l0-64 512 0 0 64-512 0zM960 960l-512 0 0-576 512 0 0 576z" p-id="1180"></path></svg>