<svg t="1626342646499" class="icon" viewBox="0 0 1024 1024" version="1.1" xmlns="http://www.w3.org/2000/svg" p-id="2802" width="16" height="16"><path d="M192.853 328.107H152.15a68.267 68.267 0 0 0-68.864 67.669v298.837h78.507v-81.92c0-22.528 18.176-40.277 41.216-40.277h617.899c23.04 0 41.13 17.75 41.13 40.363v83.029h79.787V395.776a68.267 68.267 0 0 0-68.95-67.67h-40.96a40.704 40.704 0 0 1-9.813 1.195H203.093a43.093 43.093 0 0 1-10.154-1.194z m-30.976-80.64V41.13c0-22.614 18.091-40.363 41.131-40.363h617.899c23.04 0 41.13 17.75 41.13 40.363v206.336h9.643c83.456 0 151.21 66.474 151.21 148.309v339.2a40.363 40.363 0 0 1-39.935 41.557H862.037V982.87a38.656 38.656 0 0 1-39.936 40.363H203.093a40.363 40.363 0 0 1-41.13-40.363V775.34H42.155a40.363 40.363 0 0 1-41.131-40.363v-339.2c0-81.92 67.67-148.31 151.125-148.31h9.728z m82.262 0H779.86V81.408H244.14v166.059z m0 695.125H779.86v-289.45H244.14v289.45z m243.029-450.73H235.605a40.363 40.363 0 1 1 0-80.726h251.648a40.363 40.363 0 1 1 0 80.725z" p-id="2803"></path></svg>