<svg t="1626343102352" class="icon" viewBox="0 0 1024 1024" version="1.1" xmlns="http://www.w3.org/2000/svg" p-id="5447" width="16" height="16"><path d="M128 213.333333l85.333333 0L213.333333 128C166.4 128 128 166.4 128 213.333333zM128 554.666667l85.333333 0 0-85.333333L128 469.333333 128 554.666667zM298.666667 896l85.333333 0 0-85.333333L298.666667 810.666667 298.666667 896zM128 384l85.333333 0L213.333333 298.666667 128 298.666667 128 384zM554.666667 128l-85.333333 0 0 85.333333 85.333333 0L554.666667 128zM810.666667 128l0 85.333333 85.333333 0C896 166.4 857.6 128 810.666667 128zM213.333333 896l0-85.333333L128 810.666667C128 857.6 166.4 896 213.333333 896zM128 725.333333l85.333333 0 0-85.333333L128 640 128 725.333333zM384 128 298.666667 128l0 85.333333 85.333333 0L384 128zM469.333333 896l85.333333 0 0-85.333333-85.333333 0L469.333333 896zM810.666667 554.666667l85.333333 0 0-85.333333-85.333333 0L810.666667 554.666667zM810.666667 896c46.933333 0 85.333333-38.4 85.333333-85.333333l-85.333333 0L810.666667 896zM810.666667 384l85.333333 0L896 298.666667l-85.333333 0L810.666667 384zM810.666667 725.333333l85.333333 0 0-85.333333-85.333333 0L810.666667 725.333333zM640 896l85.333333 0 0-85.333333-85.333333 0L640 896zM640 213.333333l85.333333 0L725.333333 128l-85.333333 0L640 213.333333zM298.666667 725.333333l426.666667 0L725.333333 298.666667 298.666667 298.666667 298.666667 725.333333zM384 384l256 0 0 256L384 640 384 384z" p-id="5448"></path></svg>