<svg t="1627903270074" class="icon" viewBox="0 0 1024 1024" version="1.1" xmlns="http://www.w3.org/2000/svg" p-id="1479" width="16" height="16"><path d="M204.8 708.923077h80.738462c11.815385 0 23.630769-9.846154 27.56923-21.661539l63.015385-175.261538h263.876923l68.923077 175.261538c3.938462 11.815385 15.753846 21.661538 27.569231 21.661539h80.738461c13.784615 0 23.630769-13.784615 17.723077-25.6L598.646154 98.461538c-3.938462-11.815385-13.784615-19.692308-25.6-19.692307H433.230769c-11.815385 0-23.630769 7.876923-27.569231 19.692307l-216.615384 584.861539c-5.907692 11.815385 3.938462 25.6 15.753846 25.6z m289.476923-512h17.723077l84.676923 196.923077h-177.230769l74.830769-196.923077z m460.8 630.153846h-886.153846c-15.753846 0-29.538462 13.784615-29.538462 29.538462v59.076923c0 15.753846 13.784615 29.538462 29.538462 29.538461h886.153846c15.753846 0 29.538462-13.784615 29.538462-29.538461v-59.076923c0-15.753846-13.784615-29.538462-29.538462-29.538462z" p-id="1480"></path></svg>