<svg t="1626775352967" class="icon" viewBox="0 0 1024 1024" version="1.1" xmlns="http://www.w3.org/2000/svg" p-id="2504" width="16" height="16"><path d="M597.333333 554.666667H256c-25.6 0-42.666667-17.066667-42.666667-42.666667V170.666667c0-25.6 17.066667-42.666667 42.666667-42.666667h341.333333c119.466667 0 213.333333 93.866667 213.333334 213.333333s-93.866667 213.333333-213.333334 213.333334z m-298.666666-85.333334h298.666666c72.533333 0 128-55.466667 128-128s-55.466667-128-128-128H298.666667v256z" p-id="2505"></path><path d="M640 896H256c-25.6 0-42.666667-17.066667-42.666667-42.666667v-341.333333c0-25.6 17.066667-42.666667 42.666667-42.666667h384c119.466667 0 213.333333 93.866667 213.333333 213.333334s-93.866667 213.333333-213.333333 213.333333z m-341.333333-85.333333h341.333333c72.533333 0 128-55.466667 128-128s-55.466667-128-128-128H298.666667v256z" p-id="2506"></path></svg>